<svg id="Layer_1" data-name="Layer 1" xmlns="http://www.w3.org/2000/svg" viewBox="0 0 25 25"><defs><style>.cls-1{fill:#fff;}</style></defs><path class="cls-1" d="M12.5,24.77A12.27,12.27,0,1,1,24.77,12.5,12.29,12.29,0,0,1,12.5,24.77ZM12.5,1A11.52,11.52,0,1,0,24,12.5,11.54,11.54,0,0,0,12.5,1Z"/><path class="cls-1" d="M15,6H10A4.09,4.09,0,0,0,6,10V15A4.09,4.09,0,0,0,10,19.05H15A4.09,4.09,0,0,0,19.05,15V10A4.09,4.09,0,0,0,15,6Zm2.86,9A2.86,2.86,0,0,1,15,17.82H10A2.86,2.86,0,0,1,7.18,15V10A2.86,2.86,0,0,1,10,7.18H15A2.86,2.86,0,0,1,17.82,10Z"/><path class="cls-1" d="M12.5,9.22a3.28,3.28,0,1,0,3.28,3.28A3.28,3.28,0,0,0,12.5,9.22Zm0,5.33a2.05,2.05,0,1,1,2.05-2.05A2.05,2.05,0,0,1,12.5,14.55Z"/><circle class="cls-1" cx="16.02" cy="8.98" r="0.44"/></svg>