<svg id="Layer_1" data-name="Layer 1" xmlns="http://www.w3.org/2000/svg" viewBox="0 0 25 25"><defs><style>.cls-1{fill:#fff;}</style></defs><path class="cls-1" d="M12.5,24.77A12.27,12.27,0,1,1,24.77,12.5,12.29,12.29,0,0,1,12.5,24.77ZM12.5,1A11.52,11.52,0,1,0,24,12.5,11.54,11.54,0,0,0,12.5,1Z"/><path class="cls-1" d="M19.94,7.88a6.13,6.13,0,0,1-1.76.49,3,3,0,0,0,1.35-1.69,6.15,6.15,0,0,1-1.94.74,3,3,0,0,0-5.28,2.09,3.11,3.11,0,0,0,.07.69A8.65,8.65,0,0,1,6.09,7a3.11,3.11,0,0,0-.41,1.54A3.05,3.05,0,0,0,7,11.09a3,3,0,0,1-1.38-.38v0a3.06,3.06,0,0,0,2.45,3,3,3,0,0,1-.8.1,2.78,2.78,0,0,1-.58-.05,3.09,3.09,0,0,0,2.85,2.13,6.13,6.13,0,0,1-3.78,1.3,5.85,5.85,0,0,1-.73,0A8.68,8.68,0,0,0,18.42,9.86c0-.13,0-.26,0-.39A5.94,5.94,0,0,0,19.94,7.88Z"/></svg>